<?xml version="1.0" encoding="iso-8859-1"?>
<!-- Generator: Adobe Illustrator 19.0.0, SVG Export Plug-In . SVG Version: 6.00 Build 0)  -->
<svg version="1.1" id="Layer_1" xmlns="http://www.w3.org/2000/svg" xmlns:xlink="http://www.w3.org/1999/xlink" x="0px" y="0px"
	 viewBox="0 0 512.128 512.128" style="enable-background:new 0 0 512.128 512.128;" xml:space="preserve">
<rect x="423.896" y="189.336" width="16" height="87.632"/>
<rect x="403.904" y="380.128" style="fill:#939393;" width="56" height="45.992"/>
<g>
	<path style="fill:#AAAAAA;" d="M463.248,180.08c-33.208-27.056-61.008-1.512-62.168-0.416l-11.072-11.552
		c13.296-12.784,47.832-29.352,83.352-0.44L463.248,180.08z"/>
	<path style="fill:#AAAAAA;" d="M481.536,154.6c-52.68-42.904-96.648-2.168-98.488-0.424l-11.08-11.544
		c0.552-0.528,55.832-52.4,119.672-0.44L481.536,154.6z"/>
	<path style="fill:#AAAAAA;" d="M501.896,129.408c-74.408-60.576-136.408-2.912-139.016-0.424L351.8,117.44
		C377.288,92.928,443.552,61.272,512,117L501.896,129.408z"/>
</g>
<rect x="72.064" y="189.336" width="16" height="87.632"/>
<rect x="52.096" y="380.128" style="fill:#939393;" width="56" height="45.992"/>
<g>
	<path style="fill:#AAAAAA;" d="M111.448,180.08c-33.208-27.056-61.008-1.512-62.168-0.416l-11.072-11.552
		c13.288-12.784,47.832-29.352,83.352-0.44L111.448,180.08z"/>
	<path style="fill:#AAAAAA;" d="M129.736,154.6c-52.68-42.904-96.648-2.168-98.488-0.424l-11.08-11.544
		c0.552-0.528,55.832-52.4,119.672-0.44L129.736,154.6z"/>
	<path style="fill:#AAAAAA;" d="M150.096,129.408c-74.4-60.576-136.416-2.912-139.016-0.424L0,117.44
		C25.488,92.928,91.76,61.272,160.2,117L150.096,129.408z"/>
</g>
<rect x="0.128" y="267.52" width="512" height="122.64"/>
<rect x="49.408" y="319.648" style="fill:#E50914;" width="32" height="8"/>
<rect x="94.648" y="319.648" style="fill:#939393;" width="32" height="8"/>
<g>
	<rect x="139.888" y="319.648" style="fill:#FFFFFF;" width="32" height="8"/>
	<path style="fill:#FFFFFF;" d="M351.624,353.032l-11.16-45.576h8.856l4.328,20.688c1.152,5.544,2.224,11.368,2.976,15.896h0.136
		c0.744-4.808,2.032-10.208,3.312-15.96l4.936-20.624h8.728l4.528,20.96c1.152,5.416,2.096,10.488,2.776,15.424h0.136
		c0.816-5.008,1.888-10.208,3.112-15.76l4.736-20.624h8.456l-12.24,45.576h-8.92l-4.736-21.44c-1.152-5.208-1.96-9.536-2.504-14.472
		h-0.136c-0.816,4.864-1.688,9.256-3.04,14.472l-5.28,21.44H351.624z"/>
	<path style="fill:#FFFFFF;" d="M410.008,310.904c0,2.496-1.824,4.464-4.736,4.464c-2.776,0-4.592-1.96-4.592-4.464
		c0-2.568,1.888-4.528,4.664-4.528C408.184,306.368,409.944,308.328,410.008,310.904z M401.144,353.032v-32.936h8.392v32.936
		H401.144z"/>
	<path style="fill:#FFFFFF;" d="M418.784,307.456h26.304v6.832h-17.992v12.576h16.776v6.832h-16.776v19.344h-8.312V307.456z"/>
	<path style="fill:#FFFFFF;" d="M460.216,310.904c0,2.496-1.824,4.464-4.736,4.464c-2.776,0-4.592-1.96-4.592-4.464
		c0-2.568,1.888-4.528,4.664-4.528C458.392,306.368,460.152,308.328,460.216,310.904z M451.352,353.032v-32.936h8.392v32.936
		H451.352z"/>
</g>
<g>
</g>
<g>
</g>
<g>
</g>
<g>
</g>
<g>
</g>
<g>
</g>
<g>
</g>
<g>
</g>
<g>
</g>
<g>
</g>
<g>
</g>
<g>
</g>
<g>
</g>
<g>
</g>
<g>
</g>
</svg>
